<svg width="25" height="24" viewBox="0 0 25 24" fill="none" xmlns="http://www.w3.org/2000/svg">
<path d="M10.375 2H14.375M10.375 21.2361C10.9058 21.7111 11.6066 22 12.375 22C13.1434 22 13.8442 21.7111 14.375 21.2361M5.45993 18.5C4.65445 18.5 4.13057 17.7407 4.49079 17.0954L5.81342 14.7258C6.56569 13.3781 6.95734 11.892 6.95734 10.3852V9.76471C6.95734 8.11791 7.87304 6.6627 9.27323 5.78534C9.33978 5.74364 9.40743 5.70324 9.47613 5.6642C10.3144 5.1877 11.3087 4.91176 12.375 4.91176C13.4413 4.91176 14.4356 5.1877 15.2739 5.6642C15.3426 5.70324 15.4102 5.74364 15.4768 5.78534C16.877 6.6627 17.7927 8.11791 17.7927 9.76471V10.3852C17.7927 11.892 18.1843 13.3781 18.9366 14.7258L20.2592 17.0954C20.6194 17.7407 20.0955 18.5 19.2901 18.5H15.375H9.375H5.45993Z" stroke="#818898" stroke-width="2" stroke-linecap="round"/>
</svg>
