<svg width="89" height="40" viewBox="0 0 89 40" fill="none" xmlns="http://www.w3.org/2000/svg">
<path d="M15.5277 1.80575L1.07327 36.3807C0.489243 39.4443 1.65729 40.3196 4.86938 39.736C14.9437 35.943 22.8279 36.8183 31.2961 39.736C34.3048 40.7727 35.3843 38.5689 34.8002 36.3807L20.1998 1.80575C19.3238 -0.528422 16.4037 -0.674307 15.5277 1.80575Z" fill="#FEBC12"/>
<path d="M17.1877 13.695L12.2169 25.5303C12.0161 26.579 12.4178 26.8786 13.5224 26.6789C16.9868 25.3805 19.6982 25.6801 22.6103 26.6789C23.645 27.0337 24.0162 26.2793 23.8153 25.5303L18.7944 13.695C18.4931 12.896 17.4889 12.8461 17.1877 13.695Z" fill="#FED261"/>
<path fill-rule="evenodd" clip-rule="evenodd" d="M17.9854 13.3847C17.8023 13.3812 17.5882 13.4879 17.4782 13.7979L17.4753 13.8061L12.5139 25.6191C12.4245 26.1103 12.5085 26.2778 12.5797 26.3382C12.6215 26.3736 12.6997 26.4115 12.8509 26.4246C12.9975 26.4372 13.1912 26.4246 13.4411 26.3809C16.9751 25.0631 19.7554 25.3743 22.7106 26.3878C23.1533 26.5397 23.3514 26.4284 23.4392 26.3224C23.5481 26.191 23.6012 25.9386 23.5233 25.6296L18.5088 13.8094L18.5065 13.8035C18.3969 13.5128 18.1764 13.3884 17.9854 13.3847ZM19.0805 13.5804C18.8877 13.0758 18.4571 12.7782 17.9972 12.7694C17.5302 12.7605 17.0937 13.0501 16.9009 13.5836L11.9209 25.4409L11.9148 25.4725C11.8126 26.0059 11.827 26.5069 12.1811 26.8073C12.3527 26.9529 12.5695 27.018 12.798 27.0377C13.0259 27.0574 13.288 27.034 13.5775 26.9816L13.6048 26.9767L13.6308 26.967C17.0131 25.6994 19.6489 25.9884 22.5107 26.9699C23.1025 27.1729 23.6074 27.0844 23.9136 26.7147C24.1966 26.3732 24.2287 25.8818 24.1131 25.4507L24.1075 25.4299L19.0805 13.5804Z" fill="#FED261"/>
<path d="M22.2512 21.0769L22.636 22C22.2107 22.0981 22.0048 22.1219 21.6776 22.2527C21.285 22.645 20.6306 22.3834 20.4343 22.2527C19.878 21.6314 19.42 21.6968 18.9946 21.5333C18.7001 21.3698 18.8637 21.0756 19.2236 21.1083C19.7472 21.1083 20.1347 21.15 20.6633 21.5006C20.7615 21.5333 20.8596 21.4352 20.7288 21.3044C20.128 20.9289 19.7632 20.8491 19.06 20.9448C18.6231 21.0345 18.7039 21.1967 18.7001 21.4352C18.1341 21.556 17.8893 21.6254 17.3913 21.7622C17.0968 21.7949 16.9332 21.5006 17.2277 21.3371L19.3218 20.487C19.9231 20.327 20.1725 20.1601 21.1214 20.8467C21.4813 21.0756 21.7276 21.2077 22.2512 21.0769Z" fill="#FEBC12"/>
<path d="M15.7553 21.3699C15.2019 20.9222 14.0103 21.3917 13.4976 21.6642L12.9369 23L13.923 22.6778C14.4105 22.4677 14.7923 22.5193 15.7881 23.1028C16.3116 23.3644 17.3259 22.9393 18.9292 22.1873C19.07 22.112 19.0928 21.8276 18.831 21.8276C18.288 21.9416 17.9876 22.0142 17.4568 22.1546C17.4895 22.4489 17.3642 22.6016 17.1296 22.6124C16.4348 22.6444 16.0601 22.6201 15.4936 22.2854C15.2879 22.1639 15.33 21.9911 15.4936 22.0238C15.9517 22.2854 16.2134 22.4162 16.9333 22.4162C17.4241 22.4489 17.2605 22.0238 16.9333 21.9584C16.7369 21.9366 16.4425 21.9257 15.7553 21.3699Z" fill="#FEBC12"/>
<path d="M77.4116 19.6492C77.4116 18.6154 77.6148 17.6985 78.0213 16.8985C78.44 16.0985 79.0004 15.4831 79.7025 15.0523C80.4168 14.6215 81.2112 14.4062 82.0857 14.4062C82.8493 14.4062 83.5144 14.56 84.0809 14.8677C84.6598 15.1754 85.1217 15.5631 85.4665 16.0308V14.5723H88.0714V24.8H85.4665V23.3046C85.134 23.7846 84.6721 24.1846 84.0809 24.5046C83.5021 24.8123 82.8308 24.9662 82.0672 24.9662C81.2051 24.9662 80.4168 24.7446 79.7025 24.3015C79.0004 23.8585 78.44 23.2369 78.0213 22.4369C77.6148 21.6246 77.4116 20.6954 77.4116 19.6492ZM85.4665 19.6862C85.4665 19.0585 85.3434 18.5231 85.097 18.08C84.8507 17.6246 84.5182 17.28 84.0994 17.0462C83.6807 16.8 83.2311 16.6769 82.7508 16.6769C82.2704 16.6769 81.827 16.7939 81.4206 17.0277C81.0142 17.2615 80.6816 17.6062 80.423 18.0615C80.1766 18.5046 80.0535 19.0339 80.0535 19.6492C80.0535 20.2646 80.1766 20.8062 80.423 21.2739C80.6816 21.7292 81.0142 22.08 81.4206 22.3262C81.8394 22.5723 82.2828 22.6954 82.7508 22.6954C83.2311 22.6954 83.6807 22.5785 84.0994 22.3446C84.5182 22.0985 84.8507 21.7539 85.097 21.3108C85.3434 20.8554 85.4665 20.3139 85.4665 19.6862Z" fill="#FEBC12"/>
<path d="M65.26 19.6492C65.26 18.6154 65.4632 17.6984 65.8696 16.8984C66.2884 16.0984 66.855 15.483 67.5693 15.0523C68.2837 14.6215 69.0781 14.4061 69.9525 14.4061C70.6176 14.4061 71.2519 14.5538 71.8554 14.8492C72.4589 15.1323 72.9392 15.5138 73.2964 15.9938V11.1384H75.9198V24.8H73.2964V23.2861C72.9762 23.7907 72.5266 24.1969 71.9478 24.5046C71.3689 24.8123 70.6977 24.9661 69.9341 24.9661C69.0719 24.9661 68.2837 24.7446 67.5693 24.3015C66.855 23.8584 66.2884 23.2369 65.8696 22.4369C65.4632 21.6246 65.26 20.6954 65.26 19.6492ZM73.3149 19.6861C73.3149 19.0584 73.1917 18.523 72.9454 18.08C72.6991 17.6246 72.3665 17.28 71.9478 17.0461C71.529 16.8 71.0795 16.6769 70.5991 16.6769C70.1188 16.6769 69.6754 16.7938 69.269 17.0277C68.8625 17.2615 68.53 17.6061 68.2713 18.0615C68.025 18.5046 67.9018 19.0338 67.9018 19.6492C67.9018 20.2646 68.025 20.8061 68.2713 21.2738C68.53 21.7292 68.8625 22.08 69.269 22.3261C69.6877 22.5723 70.1311 22.6954 70.5991 22.6954C71.0795 22.6954 71.529 22.5784 71.9478 22.3446C72.3665 22.0984 72.6991 21.7538 72.9454 21.3107C73.1917 20.8554 73.3149 20.3138 73.3149 19.6861Z" fill="#FEBC12"/>
<path d="M63.7423 14.5723V24.8H61.1374V23.5077C60.8049 23.9508 60.3677 24.3015 59.8257 24.56C59.2961 24.8061 58.7173 24.9292 58.0891 24.9292C57.2886 24.9292 56.5804 24.7631 55.9645 24.4308C55.3487 24.0861 54.8622 23.5877 54.5051 22.9354C54.1602 22.2708 53.9878 21.4831 53.9878 20.5723V14.5723H56.5742V20.2031C56.5742 21.0154 56.7774 21.6431 57.1839 22.0861C57.5903 22.5169 58.1445 22.7323 58.8466 22.7323C59.5609 22.7323 60.1213 22.5169 60.5278 22.0861C60.9342 21.6431 61.1374 21.0154 61.1374 20.2031V14.5723H63.7423Z" fill="#FEBC12"/>
<path d="M50.6196 13.3538C50.1516 13.3538 49.7637 13.2123 49.4557 12.9292C49.1601 12.6338 49.0124 12.2708 49.0124 11.84C49.0124 11.4092 49.1601 11.0523 49.4557 10.7692C49.7637 10.4738 50.1516 10.3261 50.6196 10.3261C51.0753 10.3261 51.451 10.4738 51.7466 10.7692C52.0422 11.0523 52.19 11.4092 52.19 11.84C52.19 12.2708 52.0422 12.6338 51.7466 12.9292C51.451 13.2123 51.0753 13.3538 50.6196 13.3538ZM51.8944 26.48C51.8944 27.6123 51.6111 28.4246 51.0446 28.9169C50.4903 29.4215 49.6898 29.6738 48.6429 29.6738H47.4974V27.4769H48.2364C48.6305 27.4769 48.9077 27.3969 49.0678 27.2369C49.2279 27.0892 49.3079 26.8431 49.3079 26.4984V14.5723H51.8944V26.48Z" fill="#FEBC12"/>
<path d="M36.4916 19.6492C36.4916 18.6154 36.6949 17.6984 37.1013 16.8984C37.5201 16.0984 38.0805 15.4831 38.7825 15.0523C39.4968 14.6215 40.2912 14.4061 41.1657 14.4061C41.9293 14.4061 42.5944 14.56 43.161 14.8677C43.7398 15.1754 44.2017 15.5631 44.5466 16.0307V14.5723H47.1515V24.8H44.5466V23.3046C44.214 23.7846 43.7521 24.1846 43.161 24.5046C42.5821 24.8123 41.9108 24.9661 41.1472 24.9661C40.2851 24.9661 39.4968 24.7446 38.7825 24.3015C38.0805 23.8584 37.5201 23.2369 37.1013 22.4369C36.6949 21.6246 36.4916 20.6954 36.4916 19.6492ZM44.5466 19.6861C44.5466 19.0584 44.4234 18.5231 44.1771 18.08C43.9307 17.6246 43.5982 17.28 43.1794 17.0461C42.7607 16.8 42.3111 16.6769 41.8308 16.6769C41.3505 16.6769 40.9071 16.7938 40.5006 17.0277C40.0942 17.2615 39.7616 17.6061 39.503 18.0615C39.2567 18.5046 39.1335 19.0338 39.1335 19.6492C39.1335 20.2646 39.2567 20.8061 39.503 21.2738C39.7616 21.7292 40.0942 22.08 40.5006 22.3261C40.9194 22.5723 41.3628 22.6954 41.8308 22.6954C42.3111 22.6954 42.7607 22.5784 43.1794 22.3446C43.5982 22.0984 43.9307 21.7538 44.1771 21.3107C44.4234 20.8554 44.5466 20.3138 44.5466 19.6861Z" fill="#FEBC12"/>
</svg>
