<svg width="15" height="16" viewBox="0 0 15 16" fill="none" xmlns="http://www.w3.org/2000/svg">
<path d="M9.43053 9.93053C11.159 8.20209 11.159 5.39975 9.43053 3.67132C7.70209 1.94289 4.89975 1.94289 3.17132 3.67132C1.44289 5.39975 1.44289 8.20209 3.17132 9.93053C4.89975 11.659 7.70209 11.659 9.43053 9.93053ZM9.43053 9.93053L11.3591 11.8591M4.51258 5.01258C5.50025 4.02491 7.10159 4.02491 8.08927 5.01258M11.3591 11.8591L11.4517 11.7665C11.5752 11.6431 11.7753 11.6431 11.8988 11.7665L13.0324 12.9001C13.1559 13.0236 13.1559 13.2238 13.0324 13.3472L12.8472 13.5324C12.7238 13.6559 12.5236 13.6559 12.4001 13.5324L11.2665 12.3988C11.1431 12.2753 11.1431 12.0752 11.2665 11.9517L11.3591 11.8591Z" stroke="#DFE1E7" stroke-linecap="round" stroke-linejoin="round"/>
</svg>
